<?xml version="1.0"?><svg width="900" height="600" xmlns="http://www.w3.org/2000/svg">
 <title>don't tread on me banana edit</title>
 <metadata id="metadata23">image/svg+xml</metadata>

 <g>
  <title>Layer 1</title>
  <path fill="#ffffff" id="rect18474" d="m-4,25l900,0l0,600l-900,0l0,-600z"/>
  <path fill="#194619" d="m451.421539,255.302795c-0.466278,0.2117 -2.921631,3.409302 -5.6875,7.4375c-3.911835,5.697144 -6.02774,7.88092 -7.84375,8.125c-1.369629,0.184052 -2.915009,0.746582 -3.4375,1.25c-1.707153,1.644806 -2.468628,0.996796 -3.15625,-2.8125c-0.372314,-2.0625 -1.124176,-4.649994 -1.6875,-5.75c-1.692657,-3.305084 -5.961273,-8.601257 -6.5,-8.0625c-0.276703,0.276657 0.028839,1.14386 0.6875,1.9375c1.555023,1.873718 1.028992,11.819641 -0.65625,12.375c-0.6875,0.226563 -1.25,-0.259003 -1.25,-1.0625c0,-0.803497 -0.675018,-2.002808 -1.5,-2.6875c-1.228516,-1.019562 -1.5,-0.953796 -1.5,0.375c0,0.892334 -0.675018,1.625 -1.5,1.625c-0.89856,0 -1.5,-0.934723 -1.5,-2.3125c0,-3.179382 -1.927673,-5.017731 -3.71875,-3.53125c-1.073334,0.890778 -2.2099,0.310883 -5.3125,-2.71875c-4.172729,-4.07457 -4.529968,-3.913116 -3.03125,1.3125c0.780792,2.722504 0.627045,3.412689 -0.9375,4.25c-2.475342,1.324768 -3,1.254578 -3,-0.375c0,-1.093628 -6.943115,-6.625 -8.3125,-6.625c-0.191528,0 -0.138885,1.290131 0.09375,2.875c0.614044,4.183868 -1.454559,4.784424 -5,1.46875l-3.0625,-2.84375l0.625,3.25l0.625,3.25l-2.9375,-1.5c-3.997772,-2.067322 -4.201691,-1.962219 -3.84375,1.75c0.273376,2.835358 1.077972,3.658997 6.3125,6.46875c10.226746,5.489441 27.436188,10.595306 39.96875,11.875l5.78125,0.59375l1.1875,0.125c18.973328,1.340302 39.207031,-0.561401 55.84375,-10.28125c-0.719482,-0.023651 -0.969513,-0.708252 -0.59375,-1.6875c0.536407,-1.397888 0.168518,-1.589935 -2.46875,-1.0625c-4.33847,0.867676 -4.873383,-0.702484 -1.78125,-5.375l2.625,-3.96875l-7,3.53125c-3.860321,1.944 -7.391754,3.424225 -7.8125,3.3125c-0.420776,-0.111725 -1.783569,0.159576 -3.0625,0.59375c-1.278961,0.434174 -2.571838,0.584412 -2.84375,0.3125c-0.727936,-0.727936 3.132507,-7.914337 6.34375,-11.8125c3.244629,-3.938721 1.660339,-2.89093 -7.3125,4.8125c-5.542938,4.758759 -9.879089,7.3125 -12.4375,7.3125c-1.229614,0 -1.215851,-7.620392 0.03125,-11.96875c0.540588,-1.884949 0.83316,-3.573044 0.625,-3.78125c-0.013031,-0.013016 -0.031433,-0.014099 -0.0625,0z" id="path6091"/>
  <path fill="#232800" d="m461.761963,270.537567c1.091858,0 1.097321,-0.200256 -0.0625,3.84375c-0.845123,2.946747 -0.758087,3.246948 0.75,2.625c6.035889,-2.489227 4.346741,1.302185 -5.03125,4.9375c0.154419,-0.302307 0.25,-0.626556 0.25,-1.03125c0,-2.986542 2.913361,-10.374969 4.09375,-10.375z" id="path6089"/>
  <path fill="#232800" d="m441.889496,272.787567c0.333618,-0.010376 0.67981,-0.015259 1.0625,0l3.75,0.15625l-2.65625,4.75c-2.07016,3.72699 -2.731995,4.317566 -3.125,2.84375c-0.469513,-1.760712 -0.667633,-1.732727 -3.25,0.5c-0.987091,0.853455 -2.861176,1.475861 -4.09375,1.90625l-1.9375,-2.34375c-1.498444,-1.780792 -2.710571,-4.210938 -2.6875,-5.40625c0.03537,-1.834503 0.309479,-1.665619 1.78125,1.09375l1.75,3.28125l3.375,-3.46875c2.399597,-2.475769 3.695892,-3.239777 6.03125,-3.3125z" id="path3164"/>
  <path fill="#194619" d="m312.580322,263.673523c-0.585632,-0.000549 -1.268005,3.359406 -2.28125,10.09375c-1.015656,6.750427 -2.199738,12.900238 -2.625,13.6875c-0.556183,1.029602 -1.509888,-0.007782 -3.40625,-3.75c-1.449951,-2.861389 -3.498016,-6.613495 -4.53125,-8.3125l-1.875,-3.0625l-0.84375,5.3125l-0.84375,5.3125l-4,-5.46875l-4,-5.4375l-0.5,4.375l-0.5,4.375l-4.34375,-3.625c-2.389526,-2.001404 -4.487122,-3.625 -4.65625,-3.625c-0.169098,0 0.322571,2.093842 1.09375,4.65625c2.455872,8.160217 1.996307,9.093353 -2.5,5.03125c-2.151306,-1.943604 -4.864838,-4.032013 -6.03125,-4.65625c-1.953308,-1.04538 -2.090057,-0.944763 -1.5,1.40625c0.352356,1.403839 0.344238,2.5625 -0.03125,2.5625c-0.375427,0 -3.334564,-2.547516 -6.59375,-5.65625c-6.299805,-6.009003 -6.559753,-5.897919 -4.9375,2.65625c0.552673,2.914093 0.884552,5.459198 0.71875,5.625c-0.165802,0.165802 -2.525665,-0.392212 -5.25,-1.21875c-2.724319,-0.826538 -6.690277,-1.891785 -8.8125,-2.375l-3.875,-0.875l2.625,2.71875c1.434769,1.497559 2.593719,2.982117 2.59375,3.3125c0.000015,0.330383 -3.941391,-0.458252 -8.75,-1.78125c-10.53949,-2.899689 -10.585098,-2.90506 -9.28125,-0.46875c1.153351,2.155029 0.852127,2.438293 -3.46875,3.5l-3,0.75l5,1.96875c7.367645,2.904419 7.702011,3.813629 1.4375,3.84375c-5.639526,0.027161 -14.803726,3.294525 -11.9375,4.25c0.825012,0.275024 5.549973,1.036072 10.5,1.6875c4.950012,0.651428 11.249969,1.722961 14,2.375l5,1.1875l-4.75,0.28125c-2.612488,0.167633 -4.750031,0.795502 -4.75,1.375c0.000015,0.974884 -2.112778,0.744965 -7.25,-0.78125c-1.152573,-0.342407 -1.750031,0.011841 -1.75,1.0625c0.000015,1.367859 -0.952957,1.518616 -6.625,0.9375c-6.446533,-0.660461 -6.602417,-0.626404 -5.9375,1.46875c0.78772,2.481659 0.839523,2.467712 -7,1.125c-3.26358,-0.55896 -7.512527,-1.28183 -9.4375,-1.59375l-3.5,-0.5625l2.8125,2.96875l2.84375,2.96875l-3.84375,0.96875l-3.8125,0.96875l3,1.21875c3.905914,1.588043 10.958267,2.862976 21.5,3.875l8.5,0.8125l-3.5,1.625l-3.5,1.59375l3.59375,0.09375c1.969345,0.044861 8.494308,-0.814606 14.5,-1.90625c14.838715,-2.697205 17.382004,-2.55658 10.90625,0.5625c-6.253342,3.011932 -4.724426,3.011261 8.5,0c5.775024,-1.314972 10.690399,-2.213318 10.90625,-2c0.215912,0.213318 -0.200104,1.086609 -0.90625,1.9375c-1.057648,1.274414 -1.05246,1.437592 0.09375,1.03125c3.015564,-1.069 19.195648,-5.53125 20.03125,-5.53125c2.120636,0 0.530457,1.962463 -3.875,4.84375c-2.612488,1.708618 -4.180939,3.11853 -3.5,3.125c2.715302,0.025818 21.054138,-6.364441 25.75,-8.96875c2.750031,-1.525146 6.349976,-3.067108 8,-3.4375c1.650024,-0.370422 3.787476,-0.90155 4.75,-1.1875c1.27002,-0.377289 1.749969,0.030914 1.75,1.53125c0.000031,1.137085 0.179626,2.09375 0.40625,2.09375c0.226624,0 3.939117,-0.67511 8.25,-1.5c8.842896,-1.692108 11.34375,-1.8526 11.34375,-0.71875c0.000031,1.338409 -6.054169,4.426941 -13.4375,6.875l-7.0625,2.34375l5.96875,-0.65625c3.280701,-0.357849 13.180664,-2.094025 22,-3.875c8.819336,-1.780945 16.206696,-3.085724 16.40625,-2.90625c0.199554,0.179474 -1.121094,1.207886 -2.9375,2.3125l-3.3125,2.03125l7.9375,0.28125c8.601379,0.322723 8.640594,0.147156 -1.0625,4.34375c-2.199982,0.951508 -3.427185,1.938293 -2.71875,2.1875c1.118958,0.393585 9.312744,-0.736633 17.21875,-2.375c2.320435,-0.480865 2.248566,-0.299316 -1,2.53125c-3.434204,2.99234 -3.453033,3.067535 -1,3.09375c1.375031,0.014709 6.032867,-0.64386 10.34375,-1.46875c10.157074,-1.943604 14.65625,-1.95285 14.65625,-0.03125c0.000031,0.807434 -1.237488,2.116943 -2.75,2.9375c-3.378784,1.833038 -2.214905,1.911407 6.5625,0.40625c3.764557,-0.645538 7.644745,-0.876129 8.625,-0.5c1.653992,0.634705 1.670502,0.861633 0.1875,3.125l-1.59375,2.4375l4.71875,-1.4375c2.606842,-0.791016 4.862488,-1.431549 5,-1.4375c0.137512,-0.005951 0.25,0.899994 0.25,2c0.000031,2.627808 0.17337,2.587097 6.5625,-1.5c6.306915,-4.034454 7.4375,-4.261658 7.4375,-1.5c0.000031,2.38797 0.016693,2.37085 3.5625,0.53125c1.53595,-0.796844 3.173035,-1.216827 3.625,-0.9375c1.855408,1.146698 0.532593,3.458984 -4.4375,7.78125c-4.284821,3.726318 -4.844147,4.573822 -3.09375,4.59375c3.835785,0.04364 14.976868,-3.905853 16.84375,-5.96875c1.000824,-1.105865 2.693909,-2 3.78125,-2c1.087372,0 3.508606,-0.971527 5.375,-2.125c4.718536,-2.916199 6.752136,-1.923706 5.9375,2.875l-0.65625,3.75l2.28125,-2.53125c1.251556,-1.393005 3.035095,-3.643005 3.96875,-5l1.71875,-2.46875l0.03125,2.40625l0.0625,2.4375l2.4375,-2.28125c2.553711,-2.399078 4.5625,-2.07782 4.5625,0.71875c0.000031,1.315033 0.33725,1.186798 1.5625,-0.5625c1.502136,-2.144531 1.617371,-2.15274 4.1875,-0.46875c2.521088,1.651886 2.60614,1.661072 1.96875,0c-0.822662,-2.14389 1.00885,-2.276825 3.6875,-0.25c1.365662,1.033356 2.287598,1.153076 3.1875,0.40625c0.858124,-0.712158 2.421021,-0.731476 4.84375,-0.0625c2.423889,0.669281 3.5625,0.639191 3.5625,-0.0625c0.000031,-0.9729 5.817291,-0.540375 11.75,0.875c1.840271,0.439056 2.139832,0.235626 1.59375,-1.1875c-0.603088,-1.571716 -0.16272,-1.686676 4.25,-1.0625c2.700378,0.381958 5.810547,0.958252 6.90625,1.28125c1.812805,0.534424 1.850708,0.439972 0.5,-1.1875c-1.356995,-1.635101 -1.316833,-1.731384 0.59375,-1.125c2.080566,0.66037 16.980347,3.625 18.21875,3.625c0.357605,0 -1.090271,-1.237488 -3.21875,-2.75c-4.506165,-3.202057 -3.461731,-3.730133 4.78125,-2.4375c5.039368,0.790253 5.830994,0.662811 6.6875,-0.9375c0.932434,-1.742279 1.154053,-1.729004 5.625,0.1875c3.416382,1.464447 4.843628,1.672302 5.375,0.8125c0.510742,-0.826324 2.404175,-0.182648 6.4375,2.125c5.270447,3.015442 5.656311,3.094391 5.03125,1.125c-0.784668,-2.47229 0.636963,-2.832214 2.46875,-0.625c0.930542,1.121246 1.615601,1.218048 2.59375,0.40625c0.725647,-0.602203 2.273682,-0.785522 3.46875,-0.40625c1.378174,0.437408 2.474915,0.224579 3,-0.625c0.64209,-1.038971 1.503174,-0.713806 3.78125,1.46875c1.956299,1.874268 3.062805,2.374115 3.34375,1.53125c0.327148,-0.981445 1.391663,-0.868744 4.65625,0.4375c5.306824,2.123352 5.509399,2.113464 4.875,-0.3125c-0.590027,-2.256256 0.031799,-2.444916 3.75,-1.03125c1.83606,0.69809 3.158875,0.638275 4.53125,-0.21875c1.524231,-0.951904 2.226074,-0.961487 3.1875,0c1.648865,1.648895 2.8125,1.544983 2.8125,-0.25c0,-1.185028 0.513855,-1.252014 2.65625,-0.4375c1.842041,0.700348 2.890625,0.670715 3.34375,-0.0625c0.970825,-1.570862 21.846619,-1.857483 22.8125,-0.3125c1.894104,3.029755 13.713867,5.868835 12.625,3.03125c-0.666992,-1.738068 14.479919,-5.648895 21.15625,-5.46875c3.900879,0.105255 6.169861,-0.526886 9.75,-2.625c2.566284,-1.503937 4.65625,-2.875488 4.65625,-3.0625c0,-0.186981 -1.6875,0.263947 -3.75,1c-2.515503,0.897736 -8.523315,1.324371 -18.25,1.28125l-14.5,-0.0625l7.5,-1.375c4.125,-0.747101 10.200012,-2.320068 13.5,-3.5c6.337219,-2.2659 17.784912,-7.965088 17.1875,-8.5625c-0.19397,-0.19397 -6.743347,1.005402 -14.53125,2.65625c-7.787903,1.650848 -15.165833,2.975189 -16.40625,2.96875c-1.478271,-0.007629 1.29126,-2.112457 8.03125,-6.125c5.655701,-3.367065 10.129272,-6.277008 9.9375,-6.46875c-0.191711,-0.191711 -3.469055,0.534821 -7.28125,1.625c-10.366028,2.964417 -11.455444,2.508972 -4.75,-1.96875c5.363464,-3.581573 10.409058,-8.03125 9.09375,-8.03125c-0.288696,0 -5.143066,1.356262 -10.78125,3.03125c-5.638184,1.674988 -10.435242,2.846008 -10.6875,2.59375c-0.252258,-0.252258 0.28656,-1.639771 1.21875,-3.0625c2.116211,-3.229706 1.530518,-3.221832 -3.125,-0.0625c-2.026184,1.375 -4.298584,2.5 -5.0625,2.5c-0.763916,0 -4.104492,1.364563 -7.40625,3.03125c-13.233032,3.362762 -26.671753,5.111786 -40.1875,4.8125c-5.276367,-0.419342 -14.293091,-5.720184 -17.28125,-6.0625c-0.287659,-1.100006 -5.042908,1.21875 -5.96875,1.21875c-0.925842,0 -2.469055,-0.991547 -3.4375,-2.1875l-1.75,-2.1875l-3.0625,2.1875c-3.898804,2.776184 -3.971069,2.751343 -4.78125,-0.9375l-0.65625,-3.09375l-1.84375,3c-2.643677,4.347198 -3.96875,4.822845 -3.96875,1.4375c0,-1.582611 -0.717773,-5.269012 -1.59375,-8.21875l-1.59375,-5.375l-2.46875,4.9375c-1.362854,2.712433 -3.120117,5.569641 -3.90625,6.375c-1.249512,1.280121 -1.4375,1.202393 -1.4375,-0.75c0,-1.919617 -0.366089,-2.137268 -2.65625,-1.5625c-2.336243,0.586365 -2.569763,0.41571 -1.875,-1.25c0.435791,-1.04483 1.60791,-4.008484 2.625,-6.59375l1.875,-4.6875l-6.53125,4.5625c-3.591309,2.510529 -6.769775,4.355194 -7.03125,4.09375c-0.261414,-0.261475 0.012268,-1.751862 0.59375,-3.28125c0.872681,-2.295197 -0.102112,-1.664398 -5.65625,3.53125l-26.9375,15.09375l-19.71875,9.03125c-2.480652,1.462311 -6.678894,3.890472 -9.9375,4.59375c-6.621735,1.429108 -12.876068,1.747345 -31.75,1.71875c-21.137207,-0.032043 -25.106445,-0.307953 -39.40625,-2.8125c-8.744049,-1.531494 -20.068359,-3.826447 -25.1875,-5.125c-21.928101,-5.562531 -43.74588,-19.723267 -53.46875,-34.71875c-3.646545,-5.624023 -3.73175,-5.703888 -5.5,-3.75c-1.784454,1.971832 -1.818024,1.970551 -4.625,-0.71875c-2.701385,-2.588104 -2.812531,-2.596558 -2.8125,-0.5625c0.000031,1.170441 -0.39505,2.35965 -0.875,2.65625c-0.479889,0.2966 -1.193817,-3.385864 -1.59375,-8.1875c-0.561096,-6.73584 -1.039337,-10.09317 -1.625,-10.09375z" id="path9992"/>
  <path fill="#232800" d="m506.580322,314.798523c-2.767944,2.610565 -6.458801,6.882843 -9.1875,9.5c-3.732849,3.580292 -7.107849,6.174774 -7.5,5.78125c-0.39212,-0.393524 1.756256,-2.908508 4.78125,-5.59375c2.03064,-1.802582 4.673859,-5.394226 6.09375,-7.59375l5.8125,-2.09375z" id="path9990"/>
  <path fill="#232800" d="m497.017822,318.267273c-2.739716,2.535278 -5.907532,5.977386 -8,8.25c-2.283417,2.47998 -4.535278,4.143951 -5,3.6875c-0.464691,-0.456451 0.936523,-2.460571 3.09375,-4.4375c1.528015,-1.40033 3.443665,-3.341003 4.125,-4.679901l5.78125,-2.820099z" id="path4143"/>
  <path fill="#232800" d="m604.098877,310.894653l0.5625,3.15625l0,2.59375l3,-1.78125c1.041748,-0.615387 3.509338,0.124542 3.986511,-0.331055c5.809021,0.083984 20.545593,-2.120544 23.513489,-2.012695l4,0.15625l-4.25,2.125c-2.337524,1.174255 -4.25,2.49585 -4.25,2.9375c0,0.44165 4.275024,0.8125 9.5,0.8125c5.224976,0 9.5,0.365204 9.5,0.84375c0,0.478516 -2.025024,1.463287 -4.5,2.15625c-2.475037,0.692963 -4.5,1.580963 -4.5,2c0,0.419037 2.137512,1.205505 4.75,1.75c4.395813,0.916168 4.004395,1.004913 -5.25,1.09375l-10,0.09375l2.5,-2.0625l2.5,-2.03125l-2.5,0.5c-1.375,0.287689 -4.929626,0.861572 -7.90625,1.25l-5.40625,0.6875l1.65625,-2.375c1.753967,-2.50415 2.192932,-4.365112 0.84375,-3.53125c-0.440857,0.272461 -3.068726,1.374969 -5.84375,2.46875l-5.03125,2l0.46875,-2.53125l0.5,-2.5l-4.28125,2.1875c-3.142944,1.603424 -4.457947,1.845825 -5,0.96875c-0.51532,-0.833801 -1.208252,-0.531891 -2.28125,1l-1.53125,2.1875l-0.71875,-2.25c-0.64563,-2.03418 -0.810791,-2.06662 -1.6875,-0.5c-0.913818,1.632904 -1.043701,1.621246 -2.34375,-0.09375c-1.326843,-1.750366 -1.375671,-1.738617 -1.40625,0.09375c-0.030762,1.841583 -0.097778,1.843506 -2.03125,0.09375c-1.952148,-1.766663 -2,-1.771851 -2,0.8125l0,2.65625l-8.46875,-4.1875c-4.654358,-2.308289 -8.329895,-4.326324 -8.1875,-4.46875c0.142456,-0.142395 2.688049,0.389282 5.6875,1.1875c7.282227,1.937958 7.308899,1.950775 6.59375,-1.625c-0.653992,-3.269867 -0.241028,-3.409515 4.625,-1.40625c1.340881,0.552032 1.75,0.239441 1.75,-1.375c0,-2.754425 1.619751,-2.687653 3.125,0.125c1.158081,2.163879 1.218201,2.171021 1.96875,0.25c0.178223,-0.456116 0.324341,-1.852997 0.4375,-2.197662c1.902466,-0.242065 1.863464,1.426941 2.59375,2.978912c1.132813,2.116699 1.146851,2.110718 3.5,-0.625l1.8125,-3.28125z" id="path3162"/>
  <path fill="#232800" d="m399.954529,270.051056l3.53125,3.34375l3.53125,3.375l0.34375,-2.875c0.311005,-2.665833 0.4375,-2.505005 2,1.90625c1.1987,3.384186 1.347321,4.741333 0.5,4.71875c-2.111389,-0.056244 -6.710449,-4.110168 -8.34375,-7.34375l-1.5625,-3.125z" id="path3160"/>
  <path fill="#232800" d="m451.829529,273.394806c0.224457,0.031525 0.34375,0.271759 0.34375,0.71875c0,1.26709 -2.401917,5.102966 -4.8125,7.6875c-2.609863,2.798218 -4.954468,3.776703 -3.5,1.46875c4.014496,-6.370239 6.996124,-10.011597 7.96875,-9.875z" id="path3158"/>
  <path fill="#232800" d="m416.360779,273.519806c0.021942,-0.018158 0.057953,-0.003693 0.09375,0.03125c0.281708,0.274994 0.968079,2.1875 1.53125,4.25c0.953796,3.49295 0.908783,4.75647 -0.125,3c-0.648529,-1.101898 -1.829041,-7.008942 -1.5,-7.28125z" id="path3156"/>
  <path fill="#232800" d="m412.360779,273.644806c0.135284,0.024261 0.396606,0.205872 0.75,0.53125c0.67395,0.620514 1.016846,2.420502 0.78125,4c-0.301788,2.023376 -0.45694,2.215149 -0.5625,0.6875c-0.082397,-1.192505 -0.456543,-2.992493 -0.8125,-4c-0.311096,-0.880493 -0.381714,-1.259155 -0.15625,-1.21875z" id="path3154"/>
  <path fill="#232800" d="m315.059326,291.836853c0.660583,-0.049835 2.146454,0.682739 5.375,2.3125c5.311462,2.681213 5.930939,2.797424 6.34375,1.21875c0.769775,-2.943634 6.672333,-1.985779 13.59375,2.21875c3.393433,2.061401 6.15625,4.177338 6.15625,4.6875c0,1.364594 -3.134766,1.075439 -6,-0.5625c-3.209229,-1.834534 -4,-1.840637 -4,-0.03125c0,0.93576 -0.57373,1.235199 -1.59375,0.84375c-0.880524,-0.337891 -1.945984,-0.037903 -2.375,0.65625c-0.608704,0.984924 -2.023315,0.776581 -6.4375,-0.875c-6.437744,-2.408661 -6.949066,-2.477631 -6.09375,-1.09375c0.854065,1.381897 0.176819,1.266968 -7.75,-1.09375c-7.6604,-2.281342 -9.291473,-1.980225 -5.65625,1l2.40625,1.9375l-4,-0.90625c-5.653015,-1.288757 -6.022095,-1.196564 -4.0625,0.96875c1.711273,1.890961 1.569092,1.917908 -8.09375,1.34375c-8.995544,-0.534515 -9.726654,-0.452026 -8.5,1.03125c1.189545,1.438477 0.807953,1.751587 -3.28125,2.78125c-3.74173,0.9422 -4.395599,1.445709 -3.46875,2.5625c0.931152,1.121979 0.530457,1.369232 -2.21875,1.375c-1.854858,0.003906 -6.412537,0.274384 -10.125,0.625c-3.712494,0.350647 -6.750031,0.388947 -6.75,0.0625c0,-0.326416 2.474976,-1.390198 5.5,-2.34375c3.024994,-0.953552 5.499969,-2.00946 5.5,-2.375c0,-0.365509 -1.012543,-1.153198 -2.25,-1.75c-1.994873,-0.962097 -1.740417,-1.096222 2.15625,-1.15625l4.375,-0.0625l-5.125,-5.4375c-2.829773,-2.992065 -5.156281,-5.92749 -5.15625,-6.5c0,-0.57251 2.942749,0.590027 6.53125,2.5625c8.306335,4.565735 14.935608,6.541809 19.15625,5.75c4.56543,-0.856476 4.14566,-2.227783 -0.9375,-3.0625c-3.792419,-0.622742 -3.980865,-0.76889 -1.75,-1.40625c1.375,-0.392822 3.997437,-0.75769 5.84375,-0.8125c2.662262,-0.079041 3.242615,-0.434937 2.75,-1.71875c-0.55304,-1.441162 0.243988,-1.557007 7.15625,-0.9375c4.270325,0.382751 8.762451,0.957764 10,1.25c1.793579,0.423553 2.249969,0.09845 2.25,-1.59375c0,-0.904449 0.017456,-1.429993 0.53125,-1.46875z" id="path3152"/>
  <path fill="#232800" d="m530.455322,305.986023c0.215759,0.01297 0.147278,0.216095 -0.1875,0.625c-1.242798,1.517914 -0.979919,1.6875 2.65625,1.6875c2.787048,0 4.191406,0.495026 4.625,1.625c0.476379,1.241486 1.452332,1.496216 4.125,1.0625c2.077393,-0.337128 3.282166,-0.213898 2.9375,0.34375c-0.319763,0.517426 -0.001221,0.954346 0.71875,0.96875c0.719971,0.014435 3.094421,0.830444 5.28125,1.8125l3.96875,1.8125l-6.625,-0.4375c-4.613831,-0.293793 -8.254395,0.122375 -11.96875,1.34375c-2.937683,0.965973 -5.967285,1.97171 -6.71875,2.25c-1.102844,0.408386 -1.148193,0.080444 -0.21875,-1.65625c1.083801,-2.025177 0.937683,-2.141846 -2.625,-2.15625c-2.925415,-0.011841 -3.440552,-0.254578 -2.28125,-1.0625c1.47699,-1.029327 0.5896,-0.944153 -8,0.75c-2.486145,0.490326 -1.543396,-0.135529 11,-7.40625c1.829468,-1.060425 2.952942,-1.584137 3.3125,-1.5625z" id="path3150"/>
  <path fill="#194119" d="m621.142822,312.392273c-1.540649,0 -3.081238,0.050995 -4.25,0.15625c-2.337524,0.210541 -0.424988,0.375 4.25,0.375c4.674988,0 6.587524,-0.164459 4.25,-0.375c-1.168762,-0.105286 -2.709351,-0.15625 -4.25,-0.15625z" id="path2212"/>
  <g transform="matrix(0.9323807,-1.0173438,1.0173438,0.9323807,193.76904,325.04378)" id="g5">
   <path fill-rule="evenodd" stroke="#000000" stroke-width="0.036" stroke-miterlimit="10" d="m91.980003,9.933001c-5.400002,-3.348001 -11.340004,-5.796 -18.108002,-7.200001c-6.768005,-1.548 -13.248001,-1.225 -22.212002,-1.548c-9.071999,-0.36 -24.732,-1.116 -31.572001,-0.324c-6.875999,0.648 -6.299999,2.484 -9.395999,4.392c-3.24,1.835 -7.992,3.204 -9.684,6.875c-1.728,3.528 -0.684,8.424 -0.612,14.688c-0.072,6.407999 -0.54,16.056002 0.936,22.823999c1.512,6.552002 2.556,11.844002 8.136,16.272003c5.507999,4.283997 16.236,6.444 24.696001,9.683998c8.351997,3.167999 18.035999,7.776001 25.307999,9.360001c7.164001,1.403999 12.491997,0.935997 17.531998,-0.288002c4.896004,-1.187996 9,-3.528 12.167999,-6.875999l0,0c-1.584,10.872002 -0.539993,21.132004 3.132004,30.925003c3.743996,9.755997 11.664001,19.402 18.755997,27.538994c6.912003,8.137009 14.472,16.309006 22.535995,20.628998c7.992004,4.104004 17.063004,1.619003 24.983002,4.06601c7.776001,2.520996 13.177002,8.10199 21.600998,10.332001c8.280014,2.125 16.776001,3.815994 28.116013,1.873001c11.446991,-2.125 32.039993,-10.117004 39.419998,-14.400009c7.056,-4.427994 4.535995,-9.251999 3.132004,-11.556992c-1.512009,-2.303009 -1.044006,-1.654007 -11.916,-2.520004c-11.088013,-1.042999 -39.276001,1.800995 -53.460007,-3.419998c-14.255997,-5.400009 -23.651993,-19.367004 -31.248001,-28.152c-7.632004,-8.963005 -11.447998,-18.107002 -14.076004,-24.372002c-2.699997,-6.300003 -3.274994,-10.440002 -1.871994,-12.851997l0,0c2.447998,1.727997 5.940002,1.727997 10.619995,-0.288002c4.572006,-2.052002 10.26001,-7.632004 17.208008,-11.592003c6.875992,-4.175999 14.723999,-10.188 24.084,-12.491997c9.216003,-2.232002 18.431992,-2.412003 31.248001,-0.936001c12.815994,1.439999 36.251984,9.251999 45.03598,9.396c8.640015,-0.072002 7.308014,-5.976002 6.552002,-9.396c-0.971985,-3.600002 -3.779999,-7.487999 -11.879974,-11.268002c-8.31601,-3.888 -23.14801,-9.575998 -36.576019,-11.231998c-13.427994,-1.656 -29.699997,-1.296001 -42.839996,1.223999c-13.248001,2.412001 -26.639999,9.396 -35.315994,13.464001c-8.639999,3.995998 -13.824005,7.487999 -15.947998,10.619999l0,0c-1.188004,-3.203999 -1.764008,-6.191998 -1.872009,-9.360001c-0.108002,-3.167999 0.251999,-6.299999 1.223999,-9.396l0,0c-2.483994,-2.483997 -4.535995,-4.211998 -6.551994,-5.615999c-2.015999,-1.403999 -3.744003,-2.195999 -5.328003,-2.52l0,0c-3.311996,2.268002 -6.407997,4.932001 -9.683998,8.136c-3.348,3.204002 -6.947998,6.948002 -9.683998,10.944c-2.807999,3.924 -4.860001,7.992001 -6.587997,12.492001l0,0c-12.672005,-4.065998 -23.904007,-8.243 -34.380005,-12.813999c-10.439999,-4.535999 -19.584,-9.324001 -27.827999,-14.364l0,0c10.368,-3.168001 18.792,-5.507999 25.956001,-6.875999c7.091999,-1.404001 12.383999,-1.980001 16.271999,-1.584002l0,0c1.080002,1.728001 2.087997,2.880001 3.419998,3.456001c1.296005,0.468 2.844002,-0.684 4.068001,0c1.080002,0.684 -0.360001,4.212 2.484001,4.067999c2.772003,-0.288 9.360001,-4.212 14.075996,-5.651999c4.572006,-1.584002 6.840004,-1.548 13.464005,-3.096001c6.587997,-1.584 17.82,-3.059999 25.631996,-5.940001c7.740005,-3.023999 17.531998,-9.108 20.339996,-11.592c2.628006,-2.628 -0.827988,-4.284 -4.391998,-3.42c-3.707993,0.9 -8.100998,6.732 -17.207993,8.748c-9.216003,1.872001 -21.528,2.808001 -37.512001,2.808001l0,0c-1.440002,-0.613 -2.916,-1.224 -4.391998,-1.872l0,0z" id="path7"/>
   <path fill="#ffff00" fill-rule="evenodd" stroke="#000000" stroke-width="0.036" stroke-miterlimit="10" d="m99.828003,12.74c3.671997,0.468 7.991997,0.576 12.815994,0.324c4.860001,-0.324 10.223999,-0.900001 16.236008,-1.872l0,0c-0.108002,1.332 -0.576004,2.375999 -1.548004,3.419999c-1.008003,0.864 -1.043999,1.656 -4.391998,2.52c-3.492004,0.864 -12.096001,1.944 -16.236,2.808001c-4.248001,0.719999 -7.272003,1.439999 -9.071999,1.872l0,0c1.619995,-1.08 2.556,-2.016001 2.807999,-2.808001c0.143997,-0.864 -1.116005,-1.223999 -1.260002,-2.195999c-0.143997,-1.116 0.071999,-2.34 0.648003,-4.068001l0,0z" id="path9"/>
   <path fill="#ffff00" fill-rule="evenodd" stroke="#000000" stroke-width="0.036" stroke-miterlimit="10" d="m134.207993,10.256c-0.972,1.080001 -1.223999,1.8 -0.612,2.160001c0.576004,0.36 1.872009,0.36 4.032013,0l0,0c3.923996,-1.548 6.76799,-2.772 9.070999,-4.068001c2.159988,-1.332 3.563995,-2.34 4.067993,-3.42l0,0c-1.440002,0.36 -2.627991,0.468 -3.419998,0.324c-0.828003,-0.216 -1.404007,-0.54 -1.584,-1.26l0,0c-2.736008,1.872 -4.932007,3.276 -6.876007,4.355999c-1.942993,1.008 -3.454987,1.693001 -4.679001,1.908l0,0z" id="path11"/>
   <path fill="#ffff00" fill-rule="evenodd" stroke="#000000" stroke-width="0.036" stroke-miterlimit="10" d="m93.564003,12.128c-2.880005,-2.16 -7.056,-3.996 -12.816002,-5.652c-5.832001,-1.692 -11.232002,-3.42 -21.600002,-4.068c-10.475998,-0.612 -33.047998,-0.504 -40.643999,0.324c-7.559999,0.684 -2.592,2.484 -4.679999,3.744c-2.304,1.116 -7.704,1.189 -8.424,3.132c-0.756,1.836 0.648,4.392 4.068,7.812l0,0c6.12,-3.024 13.463999,-5.364 22.176001,-6.876c8.747997,-1.547999 22.860001,-2.375999 29.700001,-2.483999c6.624001,-0.252 13.715996,0.287999 10.007996,0.936c-3.995995,0.396 -22.895996,0.575999 -32.831997,2.196c-9.972,1.62 -18.540001,4.068 -26.244,7.488l0,0c2.304,2.375999 4.752,4.463999 7.488,6.264c2.664,1.764 5.58,3.167999 8.747999,4.355999l0,0c7.056002,-3.023998 14.148001,-5.255999 21.275999,-6.552c7.056004,-1.403999 14.148003,-1.872 21.276005,-1.547998l0,0c-0.936005,-2.448 -0.936005,-4.284 0,-5.652c0.972,-1.440001 4.32,-1.476001 5.615997,-2.484c1.043999,-1.152 -0.431999,-3.42 1.260002,-3.744c1.584,-0.36 6.119995,1.332001 8.748001,1.872001c2.663994,0.504 4.823997,0.721 6.875999,0.936l0,0z" id="path13"/>
   <path fill="#ffff00" fill-rule="evenodd" stroke="#000000" stroke-width="0.036" stroke-miterlimit="10" d="m89.82,12.74c-4.68,-1.296 -7.919998,-1.872 -9.720001,-1.872c-1.872002,0.072001 -0.143997,0.792 -1.223999,1.872c-1.295998,1.008 -4.608002,2.16 -5.652,3.743999c-1.043999,1.512001 -0.683998,3.276001 -0.288002,4.716002c0.324005,1.188 1.152,2.268 2.484001,2.807999c1.332001,0.360001 4.032005,-0.323999 5.328003,0.288c1.080002,0.648001 -0.288002,3.852001 1.872002,3.780001c2.231995,-0.252001 5.652,-1.691999 10.944,-4.716l0,0c-5.112,0.827999 -7.848,1.043999 -8.748001,0.647999c-0.863998,-0.431999 2.195999,-2.268 3.743996,-3.132c1.476006,-0.9 5.868004,-1.872 5.004005,-2.519999c-1.008003,-0.900002 -10.008003,-1.800001 -10.620003,-2.160002c-0.503998,-0.467999 5.400002,0.18 7.164001,0c1.584,-0.323999 2.519997,-0.647999 2.519997,-1.259999c-0.143997,-0.54 -0.935997,-1.368 -2.807999,-2.196l0,0z" id="path15"/>
   <path fill="#ffff00" fill-rule="evenodd" stroke="#000000" stroke-width="0.036" stroke-miterlimit="10" d="m3.816,11.805c0.972,3.528 3.636,6.84 8.136,10.619999c4.572001,3.636002 11.34,7.164001 18.756001,11.268002c7.307999,4.139999 14.436001,8.568001 24.695999,13.139999c10.188004,4.428001 21.996002,8.675999 35.963997,13.139999l0,0l-1.871994,9.683998l0,0c-8.856003,-0.540001 -17.856003,-2.556 -27.828003,-5.652c-10.007999,-3.312996 -22.644001,-9.036999 -31.247999,-13.427998c-8.747999,-4.5 -18.072001,-11.736 -20.34,-12.815998c-2.268,-1.080002 2.196,3.275997 6.875999,6.551998c4.644001,3.276001 12.960001,8.892002 20.628,12.816002c7.632,3.815998 17.208,7.523998 24.408001,10.007999c6.983997,2.375999 12.995998,3.562996 17.495998,4.391998c4.391998,0.792 7.416,0.900002 9.071999,0.323997l0,0c0.036003,2.844002 -1.619995,5.184006 -4.68,7.164001c-3.311996,1.944 -8.099998,4.248001 -14.075996,4.391998c-6.048,-0.035995 -15.084,-2.231995 -21.276001,-4.067993c-6.155998,-1.944 -10.116001,-4.752007 -15.624001,-6.876007c-5.76,-2.051994 -13.139999,-2.807999 -17.82,-5.615997c-4.752,-3.059998 -7.812,-6.983997 -10.007999,-12.203999c-2.088,-5.400002 -2.556,-13.428001 -2.808,-19.080002c-0.504,-5.687998 0.396,-10.943998 0.324,-14.363998c-0.144,-3.42 -1.26,-4.860001 -0.972,-6.264c0.216,-1.621 0.9,-2.665 2.196,-3.132l0,0z" id="path17"/>
   <path fill="#ffff00" fill-rule="evenodd" stroke="#000000" stroke-width="0.036" stroke-miterlimit="10" d="m111.059998,34.627998l-0.935997,5.328003l0,0c-5.615997,3.888 -9.683998,9.071999 -12.204002,16.236c-2.556,7.127998 -3.167999,18.647995 -3.096001,25.956001c0,7.163994 2.375999,17.927994 2.808006,16.883995c0.251999,-1.367996 -1.404007,-16.848 -0.937004,-24.084c0.323997,-7.271996 0.683998,-13.247997 3.419998,-19.043999c2.736,-5.903999 6.912003,-10.944 12.816002,-15.66l0,0c1.332001,-0.899998 2.592003,-1.368 3.779999,-1.548c1.188004,-0.18 2.088005,0.072002 3.096001,0.612l0,0c-0.395996,6.48 -0.648003,14.508003 -0.612,24.084c-0.071999,9.612 -2.592003,22.139999 0.612,33.155998c3.167999,10.872002 8.82,22.608002 18.467995,31.896004c9.612,9.179993 26.244003,18.686005 38.772003,23.113007c12.456009,4.317993 34.270996,2.806992 35.315002,2.806992c0.684998,-0.071991 -22.283997,-1.763992 -30.311996,-3.419998c-8.028,-1.764008 -11.557007,-4.067993 -17.531998,-7.199005c-6.12001,-3.384995 -13.068008,-7.30899 -18.756012,-12.205002c-5.832001,-4.931992 -11.411987,-10.042992 -15.623993,-16.882996c-4.284004,-6.911995 -8.208,-15.625 -9.683998,-24.047997c-1.476006,-8.604004 0.215996,-17.928001 0.612,-26.604004c0.360001,-8.711998 0.647995,-16.847996 1.259995,-24.983997l0,0l4.392006,0.287998l0,0c-0.216003,5.724003 0.323997,12.420002 2.160004,20.664001c1.619995,8.171997 4.103989,18.612 8.136002,28.115997c4.067993,9.360001 9.755997,19.943001 15.947998,28.152c6.011993,8.135002 13.391998,15.660004 20.339996,20.626999c6.947998,4.861008 11.807999,6.805008 21.240005,8.460999c9.358994,1.547012 25.738998,0.611008 34.415985,0.936005c8.424011,0.251999 13.067001,0.106995 16.560013,0.936005c3.455994,0.647995 4.643997,1.944992 4.391998,3.744003c-0.322998,1.872986 -0.322998,4.319992 -6.264008,7.487991c-6.190994,3.132996 -20.627991,8.964996 -29.699997,11.268005c-9.179993,2.125 -17.207993,2.520996 -24.084,1.873001c-6.839996,-0.756012 -11.016006,-3.275009 -16.559998,-5.617004c-5.688004,-2.410004 -11.124008,-6.516006 -16.884003,-8.134995c-5.977005,-1.621002 -11.772003,0.358994 -17.531998,-1.549011c-5.796005,-2.123001 -9.072006,-3.599991 -16.236,-10.655991c-7.272003,-7.199005 -20.844002,-21.492004 -26.279999,-31.895004c-5.472,-10.549004 -5.508003,-21.205002 -5.940002,-30.313004c-0.431999,-9.071999 0.755997,-16.848 3.131996,-23.759998c2.232002,-7.091999 7.344002,-13.967999 10.332001,-18.143997c2.917999,-4.249001 5.258003,-6.444 7.166,-6.877003l0,0z" id="path19"/>
   <path fill="#ffff00" fill-rule="evenodd" stroke="#000000" stroke-width="0.036" stroke-miterlimit="10" d="m133.272003,53.383999l-2.520004,1.872002l0,0c-0.251999,1.223999 -0.143997,2.484001 0.324005,4.068001c0.431992,1.548 1.115997,3.167999 2.195999,5.004002l0,0c-0.936005,-0.324005 1.692001,-2.304005 8.423996,-5.940002c6.731995,-3.779999 21.276001,-11.736 31.283997,-15.948002c9.900009,-4.284 19.115997,-7.487999 27.503998,-9.071999c8.136002,-1.620001 14.544006,-1.116001 21.601013,-0.287998c7.019989,0.719997 14.110992,3.167999 20.304001,5.003998c6.119995,1.835999 20.483002,6.408001 16.270996,5.939999c-4.5,-0.792 -30.059998,-9.035999 -42.227997,-9.719997c-12.240005,-0.648003 -20.448013,2.807999 -30.313004,5.939999c-10.044006,3.167999 -19.584,7.667999 -28.475998,12.528c-8.820007,4.644001 -16.560013,9.647999 -23.76001,15.299999l0,0c0.036011,2.412003 0.828003,4.139999 2.807999,5.328003c1.944,1.080002 4.860001,2.844002 8.460007,1.547997c3.563995,-1.403999 7.451996,-6.479996 12.203995,-9.683998c4.608002,-3.419998 8.784012,-6.695999 15.012009,-9.683998c5.97699,-2.952003 12.779999,-6.624001 21.23999,-7.812c8.532013,-1.224003 19.764008,-0.648003 29.412003,0.612c9.540009,1.152 20.052002,4.535999 27.503998,6.264c7.272018,1.764 13.068008,4.031998 16.56102,3.743999c3.383972,-0.540001 4.139984,-4.212002 4.066986,-6.552002c0,-2.375999 -0.216003,-4.607998 -4.679993,-7.523998c-4.752014,-3.060001 -13.393005,-8.028 -23.14801,-10.619999c-9.862991,-2.700001 -23.580002,-5.256001 -35.026993,-5.328001c-11.484009,-0.072001 -22.429001,1.727999 -33.12001,4.716002c-10.764999,2.843998 -23.615997,9 -30.636002,12.491997c-7.019989,3.385002 -10.727997,5.941002 -11.26799,7.812l0,0z" id="path21"/>
  </g>
  <path d="m186.283173,359.635712l13.848663,0c3.122955,0.000061 5.503586,0.320831 7.141907,0.96228c2.201416,0.870697 4.087143,2.417206 5.657196,4.639587c1.569992,2.222443 2.764587,4.943146 3.583755,8.16217c0.819107,3.219086 1.228683,7.188477 1.228714,11.908234c-0.000031,4.146973 -0.384003,7.721161 -1.151917,10.722534c-0.938629,3.665833 -2.278275,6.632843 -4.018921,8.901093c-1.314072,1.718353 -3.088882,3.058655 -5.324448,4.020935c-1.672424,0.710266 -3.908005,1.065399 -6.706726,1.065399l-14.258224,0l0,-50.382233zm7.577087,8.523041l0,33.370514l5.657211,0c2.116104,0 3.643463,-0.1604 4.582077,-0.481171c1.228699,-0.412384 2.248367,-1.111176 3.05899,-2.096375c0.810593,-0.985168 1.471878,-2.606171 1.983871,-4.862946c0.511932,-2.256775 0.767914,-5.332611 0.767944,-9.22757c-0.000031,-3.894928 -0.256012,-6.884857 -0.767944,-8.969849c-0.511993,-2.0849 -1.228745,-3.711609 -2.150253,-4.880127c-0.92157,-1.168427 -2.090546,-1.958862 -3.506958,-2.371307c-1.05809,-0.32074 -3.131546,-0.48111 -6.220367,-0.481171l-3.404572,0zm28.798019,16.977386c-0.000015,-5.132141 0.571686,-9.439484 1.715088,-12.922058c0.853256,-2.56604 2.017975,-4.868622 3.494141,-6.907776c1.476166,-2.039063 3.093109,-3.551239 4.850861,-4.536469c2.337967,-1.328827 5.034302,-1.993256 8.08905,-1.993286c5.52919,0.000031 9.953415,2.302643 13.272675,6.907776c3.319199,4.605255 4.978806,11.008972 4.978867,19.211243c-0.000061,8.133575 -1.646851,14.497192 -4.94046,19.090942c-3.293671,4.593719 -7.696564,6.890594 -13.208694,6.890594c-5.580429,0 -10.017441,-2.285431 -13.311081,-6.856232c-3.29364,-4.570831 -4.94046,-10.865723 -4.940445,-18.884735l0,0zm7.807449,-0.343689c-0.000015,5.704956 0.981262,10.02948 2.943802,12.973602c1.962509,2.944122 4.454086,4.416199 7.474686,4.416168c3.020569,0.000031 5.499329,-1.460602 7.436279,-4.381805c1.936905,-2.921204 2.905365,-7.303009 2.905396,-13.145416c-0.000031,-5.773651 -0.942886,-10.080994 -2.828598,-12.922058c-1.885757,-2.840973 -4.390121,-4.261475 -7.513077,-4.261505c-3.123001,0.000031 -5.640152,1.437714 -7.551483,4.313049c-1.911346,2.875427 -2.86702,7.211426 -2.867004,13.007965l0,0zm34.557617,25.225494l0,-50.382233l7.372284,0l15.358948,33.645416l0,-33.645416l7.03952,0l0,50.382233l-7.602692,0l-15.128571,-32.85498l0,32.85498l-7.03949,0zm46.256012,0l0,-41.859192l-11.135223,0l0,-8.523041l29.82193,0l0,8.523041l-11.10965,0l0,41.859192l-7.577057,0zm46.588776,0l0,-41.859192l-11.135223,0l0,-8.523041l29.82193,0l0,8.523041l-11.10965,0l0,41.859192l-7.577057,0zm23.627167,0l0,-50.382233l15.947693,0c4.010345,0.000061 6.924286,0.452545 8.741791,1.357513c1.817444,0.90506 3.272278,2.514587 4.364502,4.828583c1.092163,2.314087 1.638245,4.960358 1.638275,7.938812c-0.000031,3.780396 -0.827698,6.9021 -2.483032,9.365021c-1.655365,2.463013 -4.129852,4.015259 -7.423462,4.656769c1.638245,1.283051 2.990692,2.692108 4.057312,4.227142c1.066559,1.535095 2.504333,4.261536 4.313293,8.179382l4.582092,9.82901l-9.061768,0l-5.478027,-10.963135c-1.945496,-3.917816 -3.276611,-6.386536 -3.993317,-7.406097c-0.716797,-1.019562 -1.476196,-1.718353 -2.278259,-2.096405c-0.802094,-0.378021 -2.073456,-0.567047 -3.814148,-0.567047l-1.535889,0l0,21.032684l-7.577057,0zm7.577057,-29.074615l5.606018,0c3.634949,0.000031 5.904633,-0.206146 6.809143,-0.618591c0.904449,-0.412384 1.61264,-1.12262 2.124664,-2.130768c0.511932,-1.008057 0.767914,-2.268188 0.767914,-3.780365c0,-1.695435 -0.337067,-3.064392 -1.011108,-4.106903c-0.674103,-1.042419 -1.625519,-1.701111 -2.854218,-1.976105c-0.61438,-0.114502 -2.457428,-0.171783 -5.529205,-0.171844l-5.913208,0l0,12.784576zm30.282715,29.074615l0,-50.382233l27.825287,0l0,8.523041l-20.248199,0l0,11.169342l18.840302,0l0,8.488678l-18.840302,0l0,13.712494l20.964966,0l0,8.488678l-28.542053,0zm68.859253,0l-8.242645,0l-3.27655,-11.444275l-15.00058,0l-3.097382,11.444275l-8.037842,0l14.616608,-50.382233l8.012238,0l15.026154,50.382233zm-13.95105,-19.932953l-5.170837,-18.695709l-5.068451,18.695709l10.239288,0zm17.969971,-30.44928l13.848633,0c3.122955,0.000061 5.503601,0.320831 7.141876,0.96228c2.201416,0.870697 4.087158,2.417206 5.657227,4.639587c1.570007,2.222443 2.764587,4.943146 3.58374,8.16217c0.819153,3.219086 1.228699,7.188477 1.22876,11.908234c-0.000061,4.146973 -0.384033,7.721161 -1.151917,10.722534c-0.93866,3.665833 -2.27832,6.632843 -4.018921,8.901093c-1.314087,1.718353 -3.088928,3.058655 -5.324463,4.020935c-1.672455,0.710266 -3.90802,1.065399 -6.706726,1.065399l-14.258209,0l0,-50.382233zm7.577057,8.523041l0,33.370514l5.657227,0c2.116089,0 3.643463,-0.1604 4.582062,-0.481171c1.228699,-0.412384 2.248383,-1.111176 3.05899,-2.096375c0.810608,-0.985168 1.471863,-2.606171 1.983887,-4.862946c0.511902,-2.256775 0.767883,-5.332611 0.767944,-9.22757c-0.000061,-3.894928 -0.256042,-6.884857 -0.767944,-8.969849c-0.512024,-2.0849 -1.22876,-3.711609 -2.150269,-4.880127c-0.92157,-1.168427 -2.090546,-1.958862 -3.506958,-2.371307c-1.058075,-0.32074 -3.131531,-0.48111 -6.220367,-0.481171l-3.404572,0zm43.33783,16.977386c0,-5.132141 0.571716,-9.439484 1.715088,-12.922058c0.853271,-2.56604 2.017944,-4.868622 3.494141,-6.907776c1.476135,-2.039063 3.09314,-3.551239 4.850891,-4.536469c2.337952,-1.328827 5.034302,-1.993256 8.088989,-1.993286c5.529236,0.000031 9.95343,2.302643 13.272705,6.907776c3.319214,4.605255 4.978821,11.008972 4.978882,19.211243c-0.000061,8.133575 -1.646851,14.497192 -4.940491,19.090942c-3.29364,4.593719 -7.696533,6.890594 -13.208679,6.890594c-5.580444,0 -10.017456,-2.285431 -13.311096,-6.856232c-3.29364,-4.570831 -4.94043,-10.865723 -4.94043,-18.884735l0,0zm7.807434,-0.343689c0,5.704956 0.981262,10.02948 2.943787,12.973602c1.962524,2.944122 4.454102,4.416199 7.474731,4.416168c3.020569,0.000031 5.499329,-1.460602 7.436279,-4.381805c1.93689,-2.921204 2.905334,-7.303009 2.905396,-13.145416c-0.000061,-5.773651 -0.942871,-10.080994 -2.828613,-12.922058c-1.885742,-2.840973 -4.390137,-4.261475 -7.513062,-4.261505c-3.123047,0.000031 -5.640198,1.437714 -7.551514,4.313049c-1.911316,2.875427 -2.867004,7.211426 -2.867004,13.007965l0,0zm34.557617,25.225494l0,-50.382233l7.372253,0l15.358948,33.645416l0,-33.645416l7.039551,0l0,50.382233l-7.602722,0l-15.12854,-32.85498l0,32.85498l-7.03949,0zm52.246033,0l0,-50.382233l11.339966,0l6.809143,34.367126l6.732361,-34.367126l11.365601,0l0,50.382233l-7.03949,0l0,-39.659698l-7.449097,39.659698l-7.295471,0l-7.423523,-39.659698l0,39.659698l-7.03949,0zm43.824158,0l0,-50.382233l27.825256,0l0,8.523041l-20.24823,0l0,11.169342l18.840332,0l0,8.488678l-18.840332,0l0,13.712494l20.964966,0l0,8.488678l-28.541992,0z" id="flowRoot18456"/>
 </g>
</svg>