<?xml version="1.0" encoding="UTF-8" standalone="no"?>
<!-- Created with Inkscape (http://www.inkscape.org/) -->

<svg
   xmlns:dc="http://purl.org/dc/elements/1.1/"
   xmlns:cc="http://creativecommons.org/ns#"
   xmlns:rdf="http://www.w3.org/1999/02/22-rdf-syntax-ns#"
   xmlns:svg="http://www.w3.org/2000/svg"
   xmlns="http://www.w3.org/2000/svg"
   xmlns:sodipodi="http://sodipodi.sourceforge.net/DTD/sodipodi-0.dtd"
   xmlns:inkscape="http://www.inkscape.org/namespaces/inkscape"
   width="587.10876"
   height="517.38501"
   id="svg3418"
   version="1.1"
   inkscape:version="0.47 r22583"
   sodipodi:docname="warning_banana_skin.svg">
  <title
     id="title3640">Caution_banana_skin</title>
  <defs
     id="defs3420">
    <inkscape:perspective
       sodipodi:type="inkscape:persp3d"
       inkscape:vp_x="0 : 258.6925 : 1"
       inkscape:vp_y="0 : 1000 : 0"
       inkscape:vp_z="587.10876 : 258.6925 : 1"
       inkscape:persp3d-origin="293.55438 : 172.46167 : 1"
       id="perspective17" />
  </defs>
  <sodipodi:namedview
     id="base"
     pagecolor="#ffffff"
     bordercolor="#666666"
     borderopacity="1.0"
     inkscape:pageopacity="0.0"
     inkscape:pageshadow="2"
     inkscape:zoom="1.0554687"
     inkscape:cx="18.470544"
     inkscape:cy="103.51943"
     inkscape:document-units="px"
     inkscape:current-layer="layer3"
     showgrid="false"
     fit-margin-top="0"
     fit-margin-left="0"
     fit-margin-right="0"
     fit-margin-bottom="0"
     inkscape:window-width="1280"
     inkscape:window-height="999"
     inkscape:window-x="-5"
     inkscape:window-y="31"
     inkscape:window-maximized="0" />
  <metadata
     id="metadata3423">
    <rdf:RDF>
      <cc:Work
         rdf:about="">
        <dc:format>image/svg+xml</dc:format>
        <dc:type
           rdf:resource="http://purl.org/dc/dcmitype/StillImage" />
        <dc:title>Caution_banana_skin</dc:title>
        <dc:creator>
          <cc:Agent>
            <dc:title>A remix from Yves Guillou by Cyber-Gedeon</dc:title>
          </cc:Agent>
        </dc:creator>
        <dc:rights>
          <cc:Agent>
            <dc:title></dc:title>
          </cc:Agent>
        </dc:rights>
        <dc:subject>
          <rdf:Bag>
            <rdf:li>warning</rdf:li>
            <rdf:li>road sign</rdf:li>
            <rdf:li>sign</rdf:li>
            <rdf:li>banana skin</rdf:li>
            <rdf:li>falling</rdf:li>
            <rdf:li>fall</rdf:li>
            <rdf:li></rdf:li>
          </rdf:Bag>
        </dc:subject>
        <cc:license
           rdf:resource="http://creativecommons.org/licenses/publicdomain/" />
      </cc:Work>
      <cc:License
         rdf:about="http://creativecommons.org/licenses/publicdomain/">
        <cc:permits
           rdf:resource="http://creativecommons.org/ns#Reproduction" />
        <cc:permits
           rdf:resource="http://creativecommons.org/ns#Distribution" />
        <cc:permits
           rdf:resource="http://creativecommons.org/ns#DerivativeWorks" />
      </cc:License>
    </rdf:RDF>
  </metadata>
  <g
     inkscape:label="Calque 1"
     inkscape:groupmode="layer"
     id="layer1"
     transform="translate(356.839,-691.697)"
     style="display:inline"
     sodipodi:insensitive="true">
    <g
       id="g3388"
       inkscape:label="Layer 1"
       transform="matrix(0.823019,0,0,0.823019,-366.236,638.126)">
      <g
         id="g3390">
        <path
           d="m 291.34375,-65.6875 c -10.8681,0.534341 -20.7122,6.547321 -26.15625,15.96875 l -405.625,702.625 c -5.72548,9.91086 -5.72052,22.11697 0,32.03125 5.72051,9.91429 16.27297,16.02815 27.71875,16.03125 l 807.875,0.15625 c 11.41896,-0.006 21.96022,-6.08998 27.6875,-15.96875 5.7273,-9.87876 5.7621,-22.05583 0.0937,-31.96875 L 320.6875,-49.59375 C 314.70518,-60.05227 303.37823,-66.2707 291.34375,-65.6875 z"
           id="path3392"
           inkscape:original="M 291.31250 -66.250000 C 280.25379 -65.706287 270.22703 -59.586667 264.68750 -50.000000 C 129.47917 184.20833 -5.7291671 418.41667 -140.93750 652.62500 C -146.76339 662.70968 -146.75810 675.13101 -140.93750 685.21875 C -135.11691 695.30650 -124.36529 701.52810 -112.71875 701.53125 C 156.57292 701.58333 425.86458 701.63542 695.15625 701.68750 C 706.77537 701.68103 717.51606 695.48946 723.34375 685.43750 C 729.17146 675.38555 729.20513 662.99280 723.43750 652.90625 C 589.35417 418.64583 455.27083 184.38542 321.18750 -49.875000 C 315.10044 -60.516625 303.55768 -66.843410 291.31250 -66.250000 z "
           inkscape:radius="-0.56398124"
           sodipodi:type="inkscape:offset"
           style="fill:none;stroke:#000000;stroke-width:12.5;stroke-linecap:round;stroke-miterlimit:4;stroke-opacity:1"
           transform="matrix(0.806617,0,0,0.806617,133.191,123.153)" />
        <path
           d="m 292.90625,-32.375 -404.5,700.65625 805.625,0.15625 C 560.31943,434.82625 426.61912,201.23809 292.90625,-32.375 z"
           id="path3394"
           inkscape:original="M 292.84375 -34.406250 C 292.55766 -34.384962 292.41873 -34.300416 292.28125 -34.062500 C 157.07292 200.14583 21.864583 434.35417 -113.34375 668.56250 C -113.50493 668.84151 -113.51690 668.98116 -113.34375 669.28125 C -113.16085 669.59824 -113.03490 669.65616 -112.71875 669.65625 C 156.57292 669.70833 425.86458 669.76042 695.15625 669.81250 C 695.49264 669.81231 695.57989 669.76217 695.75000 669.46875 C 695.91472 669.18463 695.92457 668.96940 695.78125 668.71875 C 561.69842 434.45921 427.61508 200.23005 293.53125 -34.031250 C 293.36499 -34.321919 293.19028 -34.413549 292.87500 -34.406250 C 292.86355 -34.405985 292.85557 -34.406809 292.84375 -34.406250 z "
           inkscape:radius="-1.3749481"
           sodipodi:type="inkscape:offset"
           style="fill:#ffcc00;fill-opacity:1;fill-rule:evenodd;stroke:#000000;stroke-width:29.44400024;stroke-linecap:round;stroke-linejoin:round;stroke-miterlimit:4;stroke-opacity:1;stroke-dasharray:none"
           transform="matrix(0.806617,0,0,0.806617,133.191,123.153)" />
      </g>
    </g>
    <g
       id="g3396"
       inkscape:label="Layer 1"
       transform="matrix(0.76187116,0,0,0.76187116,-340.45114,667.53667)" />
  </g>
  <g
     inkscape:groupmode="layer"
     id="layer2"
     inkscape:label="figure"
     style="display:inline"
     sodipodi:insensitive="true">
    <g
       id="g2840"
       transform="matrix(-0.48902434,-0.87227014,0.87227014,-0.48902434,154.53238,726.01591)">
      <path
         d="m 372.26322,294.20996 c 13.00959,0 23.55528,-10.54654 23.55528,-23.55612 0,-13.00959 -10.54569,-23.55613 -23.55528,-23.55613 -13.00958,0 -23.55612,10.54654 -23.55612,23.55613 0,13.00958 10.54654,23.55612 23.55612,23.55612 z"
         id="path3400"
         style="fill:#000000;stroke:none"
         inkscape:connector-curvature="0" />
      <path
         d="m 251.96598,266.9523 -6.16923,-16.03958 54.28796,-19.74111 38.24838,27.14419 c 0,0 2.46769,30.84531 12.33846,37.01454 l -16.04,41.94992 24.6765,23.44265 -6.16881,12.33804 -46.8853,-29.61146 22.20881,-28.37804 -2.4677,-4.93538 -49.35299,16.03957 8.63692,43.18377 -32.07915,51.82026 -19.74112,0 32.07915,-54.28795 -8.63692,-35.78069 -7.40265,-9.87035 -24.6765,33.313 -59.22334,-33.313 14.80573,-12.33846 35.78111,19.74111 22.20838,-34.54684 78.96488,-20.97496 3.70112,-8.63692 -19.74069,-13.57189 -49.353,16.03958 z"
         id="path3404"
         style="fill:#000000;stroke:none"
         inkscape:connector-curvature="0" />
    </g>
  </g>
  <g
     inkscape:groupmode="layer"
     id="layer3"
     inkscape:label="banana">
    <path
       style="fill:#000000;fill-opacity:1;stroke:#000000;stroke-width:1px;stroke-linecap:round;stroke-linejoin:round;stroke-opacity:1"
       d="m 374.40105,425.64351 c 0.30177,-3.67526 -1.64664,-4.81907 -3.01475,-6.61572 l 1.1724,-0.33497 c 1.69098,1.89886 3.93369,4.46945 3.18225,7.03443 0,0 5.16677,1.38936 5.32315,3.50877 0.56394,7.64288 -29.10623,12.06747 -29.10623,12.06747 0,0 17.59904,-5.5667 26.2593,-10.47186 1.74992,-3.00115 -1.06779,-1.97679 -2.14125,-2.75957 -10.18961,6.19991 -22.93884,3.9583 -35.50712,4.10342 -29.1953,-2.70999 24.13427,-1.23344 33.83225,-6.53197 z"
       id="path2845"
       sodipodi:nodetypes="ccccsccccc" />
  </g>
</svg>
