<?xml version="1.0"?><svg width="533.3333333333333" height="533.3333333333333" xmlns="http://www.w3.org/2000/svg" xmlns:xlink="http://www.w3.org/1999/xlink">
 <title>bananas!</title>
 <defs>
  <linearGradient id="linearGradient855">
   <stop stop-color="#ffffff" stop-opacity="0" offset="0" id="stop856"/>
   <stop stop-color="#5f0e00" stop-opacity="0.416667" offset="1" id="stop857"/>
  </linearGradient>
  <linearGradient id="linearGradient829">
   <stop stop-color="#ffffff" stop-opacity="0.525" offset="0" id="stop830"/>
   <stop stop-color="#ffffff" stop-opacity="0" offset="1" id="stop831"/>
  </linearGradient>
  <radialGradient xlink:href="#linearGradient829" id="radialGradient832"/>
  <linearGradient y2="-0.220339" y1="0.432203" xlink:href="#linearGradient829" x2="1.25" x1="0.150735" id="linearGradient850"/>
  <linearGradient y2="0.5" y1="0.5" xlink:href="#linearGradient855" x2="1" x1="0" id="linearGradient854"/>
 </defs>
 <g>
  <title>Layer 1</title>
  <g transform="rotate(90.1254653930664 115.37500000000001,177.25) " id="g845">
   <path fill="#ffe200" fill-rule="evenodd" stroke="#000000" stroke-width="10" stroke-linejoin="round" id="path847" d="m216.174652,41.977848c-14.065063,-14.132914 23.441772,-24.227848 28.130127,-19.180376c7.501373,4.03797 -6.56366,7.066448 -5.626007,14.132906c0.937653,7.066456 0,44.417721 7.501373,46.43671c7.501373,2.018982 16.878082,9.085449 16.878082,19.180374c23.441772,62.588615 -68.450027,234.202538 -285.989735,148.395576c-3.750683,-3.028488 -24.379452,-28.265823 -28.130135,-34.322784c-1.875343,-7.066467 -4.688358,-24.227844 6.563694,-30.284821c96.580132,-27.256317 208.163002,26.246857 258.797234,-95.901901c8.439087,-21.199356 1.875366,-48.455685 1.875366,-48.455685z"/>
   <path fill="url(#linearGradient850)" fill-rule="evenodd" stroke-width="1.0000000pt" id="path849" d="m-42.622604,200.468338l1.875343,-10.094925c69.387672,-28.265823 197.84864,31.294296 259.734932,-96.911385c-30.943146,90.854424 -85.328094,146.376579 -261.610275,107.00631z"/>
   <path fill="#442400" fill-rule="evenodd" stroke-width="1.0000000pt" id="path851" d="m214.226288,38.251816c2.186401,-14.213972 21.838318,-14.595905 27.33847,-15.299618c8.990601,1.264959 -11.617065,17.318604 -27.33847,15.299618z"/>
   <path fill="#442400" fill-rule="evenodd" stroke-width="1.0000000pt" id="path852" d="m-51.048496,212.696304c-0.69965,-14.835373 -1.399296,-19.728104 6.559124,-24.620819c3.463226,5.592728 2.813007,22.911346 -6.559124,24.620819z"/>
   <path fill="url(#linearGradient854)" fill-rule="evenodd" stroke-width="1.0000000pt" id="path853" d="m24.889725,262.047485c164.092468,44.417694 219.782944,-67.128906 229.729446,-93.882935c16.878082,-32.303802 6.563721,-68.645569 6.563721,-68.645569c-0.937714,109.025299 -106.894547,196.851288 -236.293167,162.528503z"/>
  </g>
  <g id="svg_1" transform="rotate(0.000005988110842736205 185.40579410475127,422.32171629421185) ">
   <path id="svg_2" fill="#ffe200" fill-rule="evenodd" stroke="#000000" stroke-width="10" stroke-linejoin="round" d="m287.822479,290.431183c-14.39386,-13.60379 23.989716,-23.32074 28.787659,-18.46228c7.676697,3.88681 -6.717102,6.80191 -5.757507,13.60379c0.959564,6.801849 0,42.754639 7.676697,44.698029c7.676727,1.94339 17.272583,8.74527 17.272583,18.46225c23.989746,60.245178 -70.049988,225.433716 -292.674652,142.839478c-3.838337,-2.9151 -24.949303,-27.20752 -28.787659,-33.037689c-1.919172,-6.80191 -4.797944,-23.32074 6.717113,-29.15094c98.837666,-26.235809 213.028782,25.26413 264.846546,-92.311218c8.636353,-20.405609 1.91922,-46.641418 1.91922,-46.641418z"/>
   <path id="svg_3" fill="url(#linearGradient850)" fill-rule="evenodd" stroke-width="1.0000000pt" d="m22.975914,442.987549l1.919172,-9.716919c71.009577,-27.20755 202.473291,30.122559 265.806147,-93.282928c-31.666443,87.452728 -87.322601,140.896057 -267.725319,102.999847z"/>
   <path id="svg_4" fill="#442400" fill-rule="evenodd" stroke-width="1.0000000pt" d="m285.828552,286.844635c2.237518,-13.681763 22.348785,-14.049438 27.977509,-14.726776c9.200745,1.217621 -11.888611,16.670166 -27.977509,14.726776z"/>
   <path id="svg_5" fill="#442400" fill-rule="evenodd" stroke-width="1.0000000pt" d="m14.353058,454.75769c-0.715998,-14.279907 -1.431999,-18.989441 6.712429,-23.698975c3.544178,5.383362 2.878773,22.053497 -6.712429,23.698975z"/>
   <path id="svg_6" fill="url(#linearGradient854)" fill-rule="evenodd" stroke-width="1.0000000pt" d="m92.06633,502.261139c167.928055,42.754608 224.920273,-64.61554 235.099258,-90.367828c17.272583,-31.09433 6.717163,-66.075439 6.717163,-66.075439c-0.959625,104.943268 -109.393143,189.481018 -241.816422,156.443268z"/>
  </g>
  <g transform="rotate(-90 406.7350769042969,184.1666564941406) " id="svg_14">
   <path id="svg_15" fill="#ffe200" fill-rule="evenodd" stroke="#000000" stroke-width="10" stroke-linejoin="round" d="m511.952454,51.356964c-14.681519,-13.875671 24.469116,-23.786819 29.363037,-18.831261c7.830078,3.964489 -6.851379,6.937847 -5.872559,13.875671c0.978638,6.937786 0,43.609108 7.830139,45.591347c7.830139,1.982224 17.617798,8.920052 17.617798,18.83123c24.469238,61.449211 -71.449982,229.939171 -298.523987,145.694206c-3.91507,-2.973358 -25.447906,-27.751266 -29.363007,-33.697968c-1.957489,-6.937866 -4.893829,-23.786819 6.851349,-29.733551c100.813049,-26.760132 217.286316,25.769073 270.139648,-94.156097c8.80896,-20.813431 1.957581,-47.573578 1.957581,-47.573578z"/>
   <path id="svg_16" fill="url(#linearGradient850)" fill-rule="evenodd" stroke-width="1.0000000pt" d="m241.81279,206.96228l1.957535,-9.911133c72.428772,-27.751312 206.519836,30.724594 271.118408,-95.14724c-32.299255,89.200539 -89.06781,143.711967 -273.075943,105.058372z"/>
   <path id="svg_17" fill="#442400" fill-rule="evenodd" stroke-width="1.0000000pt" d="m509.918701,47.698742c2.282288,-13.955204 22.79541,-14.330231 28.536682,-15.021107c9.384583,1.241959 -12.12616,17.003326 -28.536682,15.021107z"/>
   <path id="svg_18" fill="#442400" fill-rule="evenodd" stroke-width="1.0000000pt" d="m233.017609,218.967651c-0.730301,-14.565277 -1.460602,-19.368973 6.846573,-24.172607c3.615005,5.490936 2.936325,22.494232 -6.846573,24.172607z"/>
   <path id="svg_19" fill="url(#linearGradient854)" fill-rule="evenodd" stroke-width="1.0000000pt" d="m312.284058,267.420471c171.28418,43.609131 229.415405,-65.906906 239.797791,-92.173889c17.617737,-31.715759 6.851501,-67.396004 6.851501,-67.396004c-0.97876,107.040627 -111.579437,193.267952 -246.649292,159.569893z"/>
  </g>
  <g id="svg_20" transform="rotate(67.27051544189453 244.34078979492188,144.16668701171878) ">
   <path id="svg_21" fill="#ffe200" fill-rule="evenodd" stroke="#000000" stroke-width="10" stroke-linejoin="round" d="m300.962341,72.696678c-7.900696,-7.467033 13.167755,-12.800606 15.801392,-10.133827c4.213654,2.133438 -3.687012,3.733528 -3.160278,7.467033c0.526642,3.73349 0,23.467743 4.213715,24.534462c4.213684,1.066711 9.480804,4.800232 9.480804,10.133804c13.167847,33.068207 -38.449982,123.739166 -160.647278,78.403687c-2.106842,-1.600067 -13.694489,-14.934021 -15.801361,-18.134171c-1.053406,-3.733536 -2.63356,-12.800598 3.686981,-16.000778c54.251373,-14.40065 116.930145,13.86734 145.372559,-50.669037c4.740448,-11.2005 1.053467,-25.601173 1.053467,-25.601173z"/>
   <path id="svg_22" fill="url(#linearGradient850)" fill-rule="evenodd" stroke-width="1.0000000pt" d="m155.589752,156.433914l1.053406,-5.333572c38.976746,-14.934052 111.136322,16.534088 145.899292,-51.202408c-17.38147,48.002274 -47.930817,77.336975 -146.952698,56.53598z"/>
   <path id="svg_23" fill="#442400" fill-rule="evenodd" stroke-width="1.0000000pt" d="m299.867889,70.72805c1.22821,-7.509834 12.26709,-7.711647 15.356689,-8.083435c5.050201,0.668335 -6.525543,9.150139 -15.356689,8.083435z"/>
   <path id="svg_24" fill="#442400" fill-rule="evenodd" stroke-width="1.0000000pt" d="m150.85672,162.89447c-0.393005,-7.83815 -0.786011,-10.423203 3.684418,-13.008224c1.945374,2.954895 1.580139,12.105026 -3.684418,13.008224z"/>
   <path id="svg_25" fill="url(#linearGradient854)" fill-rule="evenodd" stroke-width="1.0000000pt" d="m193.513062,188.968796c92.174652,23.467758 123.457306,-35.467041 129.044464,-49.602325c9.480774,-17.067474 3.687042,-36.268387 3.687042,-36.268387c-0.526703,57.602692 -60.045197,104.004944 -132.731506,85.870712z"/>
  </g>
  <g id="svg_26" transform="rotate(67.38014221191406 421.6666870117187,437.6666870117188) ">
   <path id="svg_27" fill="#ffe200" fill-rule="evenodd" stroke="#000000" stroke-width="10" stroke-linejoin="round" d="m478.288208,366.196655c-7.900696,-7.467041 13.167755,-12.800598 15.801392,-10.13382c4.213654,2.133423 -3.687012,3.73349 -3.160278,7.46701c0.526642,3.73349 0,23.467773 4.213715,24.534485c4.213684,1.066711 9.480804,4.800232 9.480804,10.133789c13.167847,33.068207 -38.449982,123.739197 -160.647278,78.403687c-2.106812,-1.600067 -13.694458,-14.934021 -15.801331,-18.134155c-1.053406,-3.733551 -2.633575,-12.800598 3.686951,-16.000793c54.251373,-14.400635 116.930145,13.86734 145.372559,-50.669037c4.740448,-11.2005 1.053467,-25.601166 1.053467,-25.601166z"/>
   <path id="svg_28" fill="url(#linearGradient850)" fill-rule="evenodd" stroke-width="1.0000000pt" d="m332.915649,449.933899l1.053406,-5.333588c38.976746,-14.934052 111.136292,16.534088 145.899261,-51.202423c-17.38147,48.002289 -47.930817,77.336975 -146.952667,56.536011z"/>
   <path id="svg_29" fill="#442400" fill-rule="evenodd" stroke-width="1.0000000pt" d="m477.193756,364.228027c1.22821,-7.509827 12.26709,-7.71167 15.356689,-8.083435c5.050201,0.668304 -6.525543,9.150146 -15.356689,8.083435z"/>
   <path id="svg_30" fill="#442400" fill-rule="evenodd" stroke-width="1.0000000pt" d="m328.182617,456.39444c-0.393005,-7.838165 -0.786011,-10.423218 3.684418,-13.008209c1.945343,2.954895 1.580109,12.105011 -3.684418,13.008209z"/>
   <path id="svg_31" fill="url(#linearGradient854)" fill-rule="evenodd" stroke-width="1.0000000pt" d="m370.838928,482.46875c92.174652,23.467773 123.457306,-35.46701 129.044464,-49.602325c9.480743,-17.067444 3.687042,-36.268372 3.687042,-36.268372c-0.526703,57.602692 -60.045197,104.004944 -132.731506,85.870697z"/>
  </g>
 </g>
</svg>